<?xml version="1.0" encoding="UTF-8"?>
<svg xmlns="http://www.w3.org/2000/svg" xmlns:xlink="http://www.w3.org/1999/xlink" width="64pt" height="64pt" viewBox="0 0 64 64" version="1.1">
<g id="surface1">
<path style=" stroke:none;fill-rule:nonzero;fill:rgb(0%,0%,0%);fill-opacity:1;" d="M 43.25 39.875 C 42.5625 39.875 42 40.4375 42 41.125 L 42 49.75 C 42 53.199219 39.199219 56 35.75 56 L 22.25 56 C 21.5625 56 21 56.5625 21 57.25 L 21 59.730469 L 18.019531 56.75 C 17.824219 56.3125 17.386719 56 16.875 56 L 8.75 56 C 5.300781 56 2.5 53.199219 2.5 49.75 L 2.5 30.5 C 2.5 27.050781 5.300781 24.25 8.75 24.25 L 21.375 24.25 C 22.0625 24.25 22.625 23.6875 22.625 23 C 22.625 22.3125 22.0625 21.75 21.375 21.75 L 8.75 21.75 C 3.925781 21.75 0 25.675781 0 30.5 L 0 49.75 C 0 54.574219 3.925781 58.5 8.75 58.5 L 16.230469 58.5 L 21.363281 63.636719 C 21.605469 63.875 21.925781 64 22.25 64 C 22.40625 64 22.574219 63.96875 22.730469 63.90625 C 23.199219 63.707031 23.5 63.261719 23.5 62.75 L 23.5 58.5 L 35.75 58.5 C 40.574219 58.5 44.5 54.574219 44.5 49.75 L 44.5 41.125 C 44.5 40.4375 43.9375 39.875 43.25 39.875 Z M 43.25 39.875 "/>
<path style=" stroke:none;fill-rule:nonzero;fill:rgb(0%,0%,0%);fill-opacity:1;" d="M 45.832031 0 L 42.667969 0 C 32.644531 0 24.5 8.144531 24.5 18.167969 C 24.5 28.1875 32.644531 36.332031 42.667969 36.332031 L 45.832031 36.332031 C 47.394531 36.332031 48.949219 36.136719 50.449219 35.75 L 55.113281 40.417969 C 55.355469 40.65625 55.675781 40.78125 56 40.78125 C 56.15625 40.78125 56.324219 40.75 56.480469 40.6875 C 56.949219 40.488281 57.25 40.042969 57.25 39.53125 L 57.25 32.300781 C 59.230469 30.699219 60.875 28.675781 62.019531 26.417969 C 63.332031 23.84375 64 21.074219 64 18.167969 C 64 8.144531 55.855469 0 45.832031 0 Z M 55.25 30.6875 C 54.9375 30.925781 54.75 31.300781 54.75 31.6875 L 54.75 36.511719 L 51.6875 33.457031 C 51.449219 33.21875 51.136719 33.09375 50.8125 33.09375 C 50.6875 33.09375 50.5625 33.113281 50.4375 33.144531 C 48.949219 33.605469 47.40625 33.832031 45.832031 33.832031 L 42.667969 33.832031 C 34.03125 33.832031 27 26.8125 27 18.167969 C 27 9.53125 34.03125 2.5 42.667969 2.5 L 45.832031 2.5 C 54.46875 2.5 61.5 9.53125 61.5 18.167969 C 61.5 23.136719 59.21875 27.699219 55.25 30.6875 Z M 55.25 30.6875 "/>
<path style=" stroke:none;fill-rule:nonzero;fill:rgb(0%,0%,0%);fill-opacity:1;" d="M 49.875 13.675781 C 49.699219 11.0625 47.59375 8.949219 44.96875 8.769531 C 43.488281 8.667969 42.074219 9.167969 40.988281 10.175781 C 39.917969 11.175781 39.3125 12.59375 39.3125 14.050781 C 39.3125 14.738281 39.863281 15.300781 40.5625 15.300781 C 41.25 15.300781 41.8125 14.738281 41.8125 14.050781 C 41.8125 13.269531 42.125 12.542969 42.699219 12.011719 C 43.269531 11.480469 44.011719 11.207031 44.800781 11.261719 C 46.175781 11.363281 47.292969 12.46875 47.386719 13.855469 C 47.480469 15.238281 46.574219 16.46875 45.207031 16.769531 C 44.113281 17.019531 43.355469 17.980469 43.355469 19.09375 L 43.355469 22.09375 C 43.355469 22.792969 43.90625 23.34375 44.605469 23.34375 C 45.292969 23.34375 45.855469 22.792969 45.855469 22.09375 L 45.855469 19.199219 C 48.363281 18.582031 50.0625 16.28125 49.875 13.675781 Z M 49.875 13.675781 "/>
<path style=" stroke:none;fill-rule:nonzero;fill:rgb(0%,0%,0%);fill-opacity:1;" d="M 45.480469 26.15625 C 45.25 25.925781 44.925781 25.792969 44.605469 25.792969 C 44.269531 25.792969 43.949219 25.925781 43.71875 26.15625 C 43.480469 26.386719 43.355469 26.707031 43.355469 27.042969 C 43.355469 27.375 43.480469 27.699219 43.71875 27.925781 C 43.949219 28.15625 44.269531 28.292969 44.605469 28.292969 C 44.925781 28.292969 45.25 28.15625 45.480469 27.925781 C 45.71875 27.6875 45.855469 27.375 45.855469 27.042969 C 45.855469 26.707031 45.71875 26.386719 45.480469 26.15625 Z M 45.480469 26.15625 "/>
<path style=" stroke:none;fill-rule:nonzero;fill:rgb(0%,0%,0%);fill-opacity:1;" d="M 34.375 38.75 L 8 38.75 C 7.3125 38.75 6.75 39.3125 6.75 40 C 6.75 40.6875 7.3125 41.25 8 41.25 L 34.375 41.25 C 35.0625 41.25 35.625 40.6875 35.625 40 C 35.625 39.3125 35.0625 38.75 34.375 38.75 Z M 34.375 38.75 "/>
<path style=" stroke:none;fill-rule:nonzero;fill:rgb(0%,0%,0%);fill-opacity:1;" d="M 35.261719 46.113281 C 35.03125 45.886719 34.707031 45.75 34.375 45.75 C 34.042969 45.75 33.71875 45.886719 33.488281 46.113281 C 33.261719 46.34375 33.125 46.667969 33.125 47 C 33.125 47.332031 33.261719 47.65625 33.488281 47.886719 C 33.71875 48.113281 34.042969 48.25 34.375 48.25 C 34.707031 48.25 35.03125 48.113281 35.261719 47.886719 C 35.488281 47.65625 35.625 47.332031 35.625 47 C 35.625 46.667969 35.488281 46.34375 35.261719 46.113281 Z M 35.261719 46.113281 "/>
<path style=" stroke:none;fill-rule:nonzero;fill:rgb(0%,0%,0%);fill-opacity:1;" d="M 29.457031 45.75 L 8 45.75 C 7.3125 45.75 6.75 46.3125 6.75 47 C 6.75 47.6875 7.3125 48.25 8 48.25 L 29.457031 48.25 C 30.144531 48.25 30.707031 47.6875 30.707031 47 C 30.707031 46.3125 30.144531 45.75 29.457031 45.75 Z M 29.457031 45.75 "/>
<path style=" stroke:none;fill-rule:nonzero;fill:rgb(0%,0%,0%);fill-opacity:1;" d="M 26.25 31.75 L 8 31.75 C 7.3125 31.75 6.75 32.3125 6.75 33 C 6.75 33.6875 7.3125 34.25 8 34.25 L 26.25 34.25 C 26.9375 34.25 27.5 33.6875 27.5 33 C 27.5 32.3125 26.9375 31.75 26.25 31.75 Z M 26.25 31.75 "/>
</g>
</svg>
