<?xml version="1.0" encoding="UTF-8"?>
<svg xmlns="http://www.w3.org/2000/svg" xmlns:xlink="http://www.w3.org/1999/xlink" width="64pt" height="64pt" viewBox="0 0 64 64" version="1.1">
<g id="surface1">
<path style=" stroke:none;fill-rule:nonzero;fill:rgb(89.803922%,91.372549%,91.764706%);fill-opacity:1;" d="M 12.636719 18.320312 L 12.636719 9.175781 C 12.636719 8.402344 12.007812 7.773438 11.234375 7.773438 L 6.5625 7.773438 C 5.789062 7.773438 5.160156 8.402344 5.160156 9.175781 L 5.160156 18.320312 "/>
<path style=" stroke:none;fill-rule:nonzero;fill:rgb(81.960784%,81.960784%,81.960784%);fill-opacity:1;" d="M 8.554688 18.320312 L 8.554688 7.773438 L 6.5625 7.773438 C 5.789062 7.773438 5.160156 8.402344 5.160156 9.175781 L 5.160156 18.320312 "/>
<path style=" stroke:none;fill-rule:nonzero;fill:rgb(98.823529%,71.372549%,37.254902%);fill-opacity:1;" d="M 64 19.984375 L 64 54.199219 C 64 56.546875 62.097656 58.449219 59.753906 58.449219 L 4.246094 58.449219 C 1.902344 58.449219 0 56.546875 0 54.199219 L 0 19.984375 C 0 17.640625 1.902344 15.738281 4.246094 15.738281 L 12.644531 15.738281 C 14.457031 15.738281 16.066406 14.59375 16.660156 12.882812 L 18.210938 8.410156 C 18.804688 6.699219 20.414062 5.550781 22.222656 5.550781 L 47 5.550781 C 48.808594 5.550781 50.421875 6.699219 51.011719 8.410156 L 52.566406 12.882812 C 53.15625 14.59375 54.769531 15.738281 56.578125 15.738281 L 59.753906 15.738281 C 62.097656 15.738281 64 17.640625 64 19.984375 Z M 64 19.984375 "/>
<path style=" stroke:none;fill-rule:nonzero;fill:rgb(88.627451%,60.392157%,29.411765%);fill-opacity:1;" d="M 7.578125 58.449219 L 4.246094 58.449219 C 1.902344 58.449219 0 56.546875 0 54.199219 L 0 19.984375 C 0 17.640625 1.902344 15.738281 4.246094 15.738281 L 7.3125 15.738281 L 7.3125 15.746094 C 5.089844 15.882812 3.332031 17.730469 3.332031 19.984375 L 3.332031 54.199219 C 3.332031 56.546875 5.230469 58.449219 7.578125 58.449219 Z M 7.578125 58.449219 "/>
<path style=" stroke:none;fill-rule:nonzero;fill:rgb(88.627451%,60.392157%,29.411765%);fill-opacity:1;" d="M 25.554688 5.550781 C 23.746094 5.550781 22.132812 6.699219 21.539062 8.410156 L 19.992188 12.882812 C 19.398438 14.59375 17.785156 15.738281 15.976562 15.738281 L 13.125 15.738281 L 13.125 15.710938 C 14.734375 15.527344 16.121094 14.441406 16.660156 12.882812 L 18.210938 8.410156 C 18.804688 6.699219 20.414062 5.550781 22.222656 5.550781 C 22.222656 5.550781 25.554688 5.550781 25.554688 5.550781 Z M 25.554688 5.550781 "/>
<path style=" stroke:none;fill-rule:nonzero;fill:rgb(32.54902%,73.72549%,91.372549%);fill-opacity:1;" d="M 64 27.296875 L 64 54.199219 C 64 56.546875 62.097656 58.449219 59.753906 58.449219 L 4.246094 58.449219 C 1.902344 58.449219 0 56.546875 0 54.199219 L 0 27.296875 Z M 64 27.296875 "/>
<path style=" stroke:none;fill-rule:nonzero;fill:rgb(21.176471%,65.098039%,80.784314%);fill-opacity:1;" d="M 7.578125 58.449219 L 4.246094 58.449219 C 1.902344 58.449219 0 56.546875 0 54.199219 L 0 27.296875 L 3.332031 27.296875 L 3.332031 54.199219 C 3.332031 56.546875 5.230469 58.449219 7.578125 58.449219 Z M 7.578125 58.449219 "/>
<path style=" stroke:none;fill-rule:nonzero;fill:rgb(89.803922%,91.372549%,91.764706%);fill-opacity:1;" d="M 49.695312 36.765625 C 49.695312 46.539062 41.773438 54.464844 32 54.464844 C 22.226562 54.464844 14.304688 46.539062 14.304688 36.765625 C 14.304688 26.992188 22.226562 19.070312 32 19.070312 C 41.773438 19.070312 49.695312 26.992188 49.695312 36.765625 Z M 49.695312 36.765625 "/>
<path style=" stroke:none;fill-rule:nonzero;fill:rgb(33.72549%,38.823529%,40.784314%);fill-opacity:1;" d="M 44.511719 36.765625 C 44.511719 40.453125 42.921875 43.765625 40.386719 46.054688 C 38.167969 48.058594 35.226562 49.28125 32 49.28125 C 28.773438 49.28125 25.832031 48.058594 23.613281 46.054688 C 21.078125 43.765625 19.484375 40.453125 19.484375 36.765625 C 19.484375 33.082031 21.078125 29.769531 23.613281 27.480469 C 25.832031 25.472656 28.773438 24.253906 32 24.253906 C 35.226562 24.253906 38.167969 25.476562 40.386719 27.480469 C 42.921875 29.769531 44.511719 33.082031 44.511719 36.765625 Z M 44.511719 36.765625 "/>
<path style=" stroke:none;fill-rule:nonzero;fill:rgb(43.529412%,48.235294%,49.803922%);fill-opacity:1;" d="M 40.847656 27.917969 C 43.453125 30.523438 44.667969 33.992188 44.496094 37.40625 C 41.082031 37.578125 37.617188 36.363281 35.011719 33.757812 C 32.40625 31.152344 31.1875 27.683594 31.363281 24.269531 C 34.773438 24.097656 38.242188 25.3125 40.847656 27.917969 Z M 40.847656 27.917969 "/>
<path style=" stroke:none;fill-rule:nonzero;fill:rgb(43.529412%,48.235294%,49.803922%);fill-opacity:1;" d="M 28.988281 39.777344 C 31.59375 42.382812 32.808594 45.851562 32.636719 49.265625 C 29.226562 49.4375 25.757812 48.222656 23.152344 45.617188 C 20.546875 43.011719 19.328125 39.539062 19.503906 36.128906 C 22.914062 35.957031 26.382812 37.171875 28.988281 39.777344 Z M 28.988281 39.777344 "/>
<path style=" stroke:none;fill-rule:nonzero;fill:rgb(26.27451%,31.372549%,32.941176%);fill-opacity:1;" d="M 32 50.261719 C 24.558594 50.261719 18.507812 44.207031 18.507812 36.765625 C 18.507812 29.328125 24.558594 23.273438 32 23.273438 C 39.441406 23.273438 45.492188 29.328125 45.492188 36.765625 C 45.492188 44.207031 39.441406 50.261719 32 50.261719 Z M 32 25.234375 C 25.640625 25.234375 20.464844 30.40625 20.464844 36.765625 C 20.464844 43.128906 25.640625 48.300781 32 48.300781 C 38.359375 48.300781 43.535156 43.128906 43.535156 36.765625 C 43.535156 30.40625 38.359375 25.234375 32 25.234375 Z M 32 25.234375 "/>
<path style=" stroke:none;fill-rule:nonzero;fill:rgb(26.27451%,31.372549%,32.941176%);fill-opacity:1;" d="M 32 31.746094 C 29.230469 31.746094 26.976562 33.996094 26.976562 36.769531 C 26.976562 39.539062 29.230469 41.789062 32 41.789062 C 34.769531 41.789062 37.023438 39.539062 37.023438 36.769531 C 37.023438 33.996094 34.769531 31.746094 32 31.746094 Z M 32 31.746094 "/>
<path style=" stroke:none;fill-rule:nonzero;fill:rgb(89.803922%,91.372549%,91.764706%);fill-opacity:1;" d="M 38.355469 14.757812 L 46.054688 14.757812 C 47.066406 14.757812 47.886719 13.9375 47.886719 12.925781 L 47.886719 10.910156 C 47.886719 9.898438 47.066406 9.078125 46.054688 9.078125 L 38.355469 9.078125 C 37.34375 9.078125 36.523438 9.898438 36.523438 10.910156 L 36.523438 12.925781 C 36.523438 13.9375 37.34375 14.757812 38.355469 14.757812 Z M 38.355469 14.757812 "/>
<path style=" stroke:none;fill-rule:nonzero;fill:rgb(88.627451%,60.392157%,29.411765%);fill-opacity:1;" d="M 46.054688 15.738281 L 38.355469 15.738281 C 36.804688 15.738281 35.546875 14.476562 35.546875 12.925781 L 35.546875 10.910156 C 35.546875 9.359375 36.804688 8.097656 38.355469 8.097656 L 46.054688 8.097656 C 47.605469 8.097656 48.867188 9.359375 48.867188 10.910156 L 48.867188 12.925781 C 48.867188 14.476562 47.605469 15.738281 46.054688 15.738281 Z M 38.355469 10.058594 C 37.886719 10.058594 37.503906 10.441406 37.503906 10.910156 L 37.503906 12.925781 C 37.503906 13.398438 37.886719 13.78125 38.355469 13.78125 L 46.054688 13.78125 C 46.523438 13.78125 46.90625 13.398438 46.90625 12.925781 L 46.90625 10.910156 C 46.90625 10.441406 46.523438 10.058594 46.054688 10.058594 C 46.054688 10.058594 38.355469 10.058594 38.355469 10.058594 Z M 38.355469 10.058594 "/>
<path style=" stroke:none;fill-rule:nonzero;fill:rgb(33.72549%,38.823529%,40.784314%);fill-opacity:1;" d="M 15.707031 51.28125 C 15.707031 53.234375 14.121094 54.820312 12.167969 54.820312 C 10.210938 54.820312 8.625 53.234375 8.625 51.28125 C 8.625 49.324219 10.210938 47.738281 12.167969 47.738281 C 14.121094 47.738281 15.707031 49.324219 15.707031 51.28125 Z M 15.707031 51.28125 "/>
</g>
</svg>
