<?xml version="1.0" encoding="UTF-8"?>
<svg xmlns="http://www.w3.org/2000/svg" xmlns:xlink="http://www.w3.org/1999/xlink" width="64pt" height="64pt" viewBox="0 0 64 64" version="1.1">
<g id="surface1">
<path style=" stroke:none;fill-rule:nonzero;fill:rgb(69.019608%,38.823529%,15.686275%);fill-opacity:1;" d="M 64 58.90625 C 64 61.675781 61.675781 64 58.90625 64 C 57.457031 64 56.144531 63.417969 55.125 62.394531 L 38.832031 44.65625 C 38.25 44.074219 38.25 43.199219 38.832031 42.613281 L 42.613281 38.832031 C 43.199219 38.25 44.074219 38.25 44.65625 38.832031 L 62.394531 55.269531 C 63.417969 56.144531 64 57.605469 64 58.90625 Z M 64 58.90625 "/>
<path style=" stroke:none;fill-rule:nonzero;fill:rgb(69.019608%,76.862745%,84.705882%);fill-opacity:1;" d="M 42.144531 39.261719 L 39.261719 42.144531 L 34.949219 37.824219 L 37.824219 34.949219 Z M 42.144531 39.261719 "/>
<path style=" stroke:none;fill-rule:nonzero;fill:rgb(60%,70.588235%,80.392157%);fill-opacity:1;" d="M 40 40 L 40.730469 40.730469 L 42.175781 39.269531 L 37.824219 34.90625 L 34.90625 37.824219 L 37.09375 40 C 37.96875 39.125 39.125 39.125 40 40 Z M 40 40 "/>
<path style=" stroke:none;fill-rule:nonzero;fill:rgb(76.862745%,84.313725%,89.803922%);fill-opacity:1;" d="M 21.824219 0 C 9.75 0 0 9.75 0 21.824219 C 0 33.894531 9.75 43.636719 21.824219 43.636719 C 33.894531 43.636719 43.636719 33.894531 43.636719 21.824219 C 43.636719 9.75 33.894531 0 21.824219 0 Z M 21.824219 39.269531 C 12.21875 39.269531 4.363281 31.417969 4.363281 21.824219 C 4.363281 12.21875 12.21875 4.363281 21.824219 4.363281 C 31.417969 4.363281 39.269531 12.21875 39.269531 21.824219 C 39.269531 31.417969 31.417969 39.269531 21.824219 39.269531 Z M 21.824219 39.269531 "/>
<path style=" stroke:none;fill-rule:nonzero;fill:rgb(43.921569%,71.764706%,89.803922%);fill-opacity:1;" d="M 39.269531 21.824219 C 39.269531 31.457031 31.457031 39.269531 21.824219 39.269531 C 12.175781 39.269531 4.363281 31.457031 4.363281 21.824219 C 4.363281 12.175781 12.175781 4.363281 21.824219 4.363281 C 31.457031 4.363281 39.269531 12.175781 39.269531 21.824219 Z M 39.269531 21.824219 "/>
<path style=" stroke:none;fill-rule:nonzero;fill:rgb(57.254902%,77.254902%,92.156863%);fill-opacity:1;" d="M 13.238281 23.855469 C 13.96875 18.324219 18.324219 13.96875 23.855469 13.238281 L 24 13.238281 C 26.46875 12.949219 26.613281 9.457031 24.292969 9.019531 C 22.832031 8.730469 21.386719 8.730469 19.925781 8.875 C 14.25 9.75 9.75 14.25 9.019531 19.78125 C 8.730469 21.238281 8.875 22.832031 9.167969 24.144531 C 9.605469 26.613281 13.09375 26.324219 13.386719 23.855469 C 13.238281 24 13.238281 23.855469 13.238281 23.855469 Z M 13.238281 23.855469 "/>
<path style=" stroke:none;fill-rule:nonzero;fill:rgb(29.803922%,61.176471%,83.921569%);fill-opacity:1;" d="M 5.824219 23.269531 C 5.824219 13.675781 13.675781 5.824219 23.269531 5.824219 C 27.78125 5.824219 31.707031 7.5625 34.90625 10.175781 C 31.707031 6.542969 27.050781 4.363281 21.824219 4.363281 C 12.21875 4.363281 4.363281 12.21875 4.363281 21.824219 C 4.363281 27.050781 6.6875 31.707031 10.175781 34.90625 C 7.5625 31.707031 5.824219 27.78125 5.824219 23.269531 Z M 5.824219 23.269531 "/>
<path style=" stroke:none;fill-rule:nonzero;fill:rgb(69.019608%,78.823529%,85.882353%);fill-opacity:1;" d="M 21.824219 43.636719 C 33.894531 43.636719 43.636719 33.894531 43.636719 21.824219 C 42.90625 21.824219 42.175781 22.394531 42.175781 23.269531 C 41.894531 28.21875 39.707031 32.730469 36.363281 36.074219 C 33.019531 39.5625 28.363281 41.75 23.269531 42.175781 C 22.394531 42.175781 21.824219 42.90625 21.824219 43.636719 Z M 21.824219 43.636719 "/>
<path style=" stroke:none;fill-rule:nonzero;fill:rgb(88.627451%,90.588235%,94.117647%);fill-opacity:1;" d="M 21.824219 0 C 9.75 0 0 9.75 0 21.824219 C 0.730469 21.824219 1.457031 21.238281 1.457031 20.363281 C 1.75 15.5625 3.78125 11.199219 6.832031 8 C 10.324219 4.363281 15.125 1.894531 20.363281 1.457031 C 21.238281 1.457031 21.824219 0.730469 21.824219 0 Z M 21.824219 0 "/>
<path style=" stroke:none;fill-rule:nonzero;fill:rgb(63.921569%,32.941176%,14.509804%);fill-opacity:1;" d="M 62.25 55.125 L 61.386719 54.394531 C 62.105469 55.269531 62.542969 56.4375 62.542969 57.605469 C 62.542969 59.488281 60.21875 60.21875 58.90625 58.90625 L 43.636719 43.636719 C 42.761719 42.761719 41.457031 42.761719 40.582031 43.636719 L 39.125 45.09375 L 54.980469 62.105469 C 55.855469 62.980469 57.019531 63.707031 58.175781 63.855469 C 59.78125 64 61.386719 63.417969 62.394531 62.394531 C 63.417969 61.386719 64 59.78125 63.855469 58.175781 C 63.855469 57.019531 63.125 56 62.25 55.125 Z M 62.25 55.125 "/>
<path style=" stroke:none;fill-rule:nonzero;fill:rgb(78.823529%,46.27451%,16.078431%);fill-opacity:1;" d="M 47.269531 45.09375 C 47.125 45.09375 46.832031 45.09375 46.6875 44.949219 L 43.050781 41.3125 C 42.761719 41.019531 42.761719 40.582031 43.050781 40.292969 C 43.34375 40 43.78125 40 44.074219 40.292969 L 47.707031 43.925781 C 48 44.21875 48 44.65625 47.707031 44.949219 C 47.707031 45.09375 47.417969 45.09375 47.269531 45.09375 Z M 47.269531 45.09375 "/>
</g>
</svg>
