<?xml version="1.0" encoding="UTF-8"?>
<svg xmlns="http://www.w3.org/2000/svg" xmlns:xlink="http://www.w3.org/1999/xlink" width="64pt" height="64pt" viewBox="0 0 64 64" version="1.1">
<g id="surface1">
<path style=" stroke:none;fill-rule:nonzero;fill:rgb(0%,0%,0%);fill-opacity:1;" d="M 61.96875 52.65625 L 45.675781 37.675781 C 44.511719 36.65625 42.761719 36.65625 41.605469 37.824219 L 40.730469 38.6875 L 38.25 36.21875 C 41.75 32.292969 43.636719 27.199219 43.636719 21.824219 C 43.636719 9.75 33.894531 0 21.824219 0 C 9.75 0 0 9.75 0 21.824219 C 0 33.894531 9.75 43.636719 21.824219 43.636719 C 25.605469 43.636719 29.386719 42.613281 32.730469 40.730469 C 33.457031 40.292969 33.605469 39.417969 33.3125 38.6875 C 32.875 37.957031 32 37.824219 31.269531 38.105469 C 28.363281 39.707031 25.167969 40.582031 21.824219 40.582031 C 11.34375 40.730469 2.90625 32.292969 2.90625 21.824219 C 2.90625 11.34375 11.34375 2.90625 21.824219 2.90625 C 32.292969 2.90625 40.730469 11.34375 40.730469 21.824219 C 40.730469 26.761719 38.832031 31.5625 35.34375 35.050781 C 35.050781 35.34375 34.90625 35.636719 34.90625 36.074219 L 34.90625 36.363281 C 34.90625 36.800781 35.050781 37.09375 35.34375 37.386719 L 38.6875 40.730469 L 37.824219 41.605469 C 36.65625 42.761719 36.65625 44.511719 37.675781 45.675781 L 52.65625 61.96875 C 53.824219 63.269531 55.5625 64 57.457031 64 C 61.09375 64 64 61.09375 64 57.457031 C 64 55.707031 63.269531 53.96875 61.96875 52.65625 Z M 57.457031 61.09375 C 56.4375 61.09375 55.417969 60.65625 54.832031 59.925781 L 39.855469 43.636719 L 43.636719 39.855469 L 59.925781 54.832031 C 60.65625 55.5625 61.09375 56.4375 61.09375 57.457031 C 61.09375 59.488281 59.488281 61.09375 57.457031 61.09375 Z M 57.457031 61.09375 "/>
<path style=" stroke:none;fill-rule:nonzero;fill:rgb(0%,0%,0%);fill-opacity:1;" d="M 21.824219 5.824219 C 12.949219 5.824219 5.824219 12.949219 5.824219 21.824219 C 5.824219 30.6875 12.949219 37.824219 21.824219 37.824219 C 30.6875 37.824219 37.824219 30.6875 37.824219 21.824219 C 37.824219 12.949219 30.6875 5.824219 21.824219 5.824219 Z M 21.824219 34.90625 C 14.542969 34.90625 8.730469 29.09375 8.730469 21.824219 C 8.730469 14.542969 14.542969 8.730469 21.824219 8.730469 C 29.09375 8.730469 34.90625 14.542969 34.90625 21.824219 C 34.90625 29.09375 29.09375 34.90625 21.824219 34.90625 Z M 21.824219 34.90625 "/>
</g>
</svg>
