<?xml version="1.0" encoding="UTF-8"?>
<svg xmlns="http://www.w3.org/2000/svg" xmlns:xlink="http://www.w3.org/1999/xlink" width="64pt" height="64pt" viewBox="0 0 64 64" version="1.1">
<g id="surface1">
<path style=" stroke:none;fill-rule:nonzero;fill:rgb(93.72549%,92.156863%,87.058824%);fill-opacity:1;" d="M 51.3125 15.449219 L 35.863281 0 L 1.65625 0 L 1.65625 64 L 51.3125 64 Z M 51.3125 15.449219 "/>
<path style=" stroke:none;fill-rule:nonzero;fill:rgb(83.529412%,81.568627%,73.333333%);fill-opacity:1;" d="M 12.6875 25.375 L 40.269531 25.375 C 40.886719 25.375 41.375 24.886719 41.375 24.269531 C 41.375 23.667969 40.886719 23.175781 40.269531 23.175781 L 12.6875 23.175781 C 12.082031 23.175781 11.582031 23.667969 11.582031 24.269531 C 11.582031 24.886719 12.082031 25.375 12.6875 25.375 Z M 12.6875 25.375 "/>
<path style=" stroke:none;fill-rule:nonzero;fill:rgb(83.529412%,81.568627%,73.333333%);fill-opacity:1;" d="M 12.6875 16.550781 L 23.730469 16.550781 C 24.332031 16.550781 24.824219 16.0625 24.824219 15.449219 C 24.824219 14.832031 24.332031 14.34375 23.730469 14.34375 L 12.6875 14.34375 C 12.082031 14.34375 11.582031 14.832031 11.582031 15.449219 C 11.582031 16.0625 12.082031 16.550781 12.6875 16.550781 Z M 12.6875 16.550781 "/>
<path style=" stroke:none;fill-rule:nonzero;fill:rgb(83.529412%,81.568627%,73.333333%);fill-opacity:1;" d="M 40.269531 32 L 12.6875 32 C 12.082031 32 11.582031 32.488281 11.582031 33.105469 C 11.582031 33.71875 12.082031 34.207031 12.6875 34.207031 L 40.269531 34.207031 C 40.886719 34.207031 41.375 33.71875 41.375 33.105469 C 41.375 32.488281 40.886719 32 40.269531 32 Z M 40.269531 32 "/>
<path style=" stroke:none;fill-rule:nonzero;fill:rgb(83.529412%,81.568627%,73.333333%);fill-opacity:1;" d="M 40.269531 40.824219 L 12.6875 40.824219 C 12.082031 40.824219 11.582031 41.324219 11.582031 41.925781 C 11.582031 42.542969 12.082031 43.03125 12.6875 43.03125 L 40.269531 43.03125 C 40.886719 43.03125 41.375 42.542969 41.375 41.925781 C 41.375 41.324219 40.886719 40.824219 40.269531 40.824219 Z M 40.269531 40.824219 "/>
<path style=" stroke:none;fill-rule:nonzero;fill:rgb(83.529412%,81.568627%,73.333333%);fill-opacity:1;" d="M 40.269531 49.65625 L 12.6875 49.65625 C 12.082031 49.65625 11.582031 50.144531 11.582031 50.761719 C 11.582031 51.363281 12.082031 51.863281 12.6875 51.863281 L 40.269531 51.863281 C 40.886719 51.863281 41.375 51.363281 41.375 50.761719 C 41.375 50.144531 40.886719 49.65625 40.269531 49.65625 Z M 40.269531 49.65625 "/>
<path style=" stroke:none;fill-rule:nonzero;fill:rgb(83.529412%,81.568627%,73.333333%);fill-opacity:1;" d="M 35.863281 0 L 35.863281 15.449219 L 51.3125 15.449219 Z M 35.863281 0 "/>
<path style=" stroke:none;fill-rule:nonzero;fill:rgb(44.313725%,76.470588%,52.54902%);fill-opacity:1;" d="M 62.34375 50.761719 C 62.34375 58.074219 56.417969 64 49.105469 64 C 41.792969 64 35.863281 58.074219 35.863281 50.761719 C 35.863281 43.449219 41.792969 37.519531 49.105469 37.519531 C 56.417969 37.519531 62.34375 43.449219 62.34375 50.761719 Z M 62.34375 50.761719 "/>
<path style=" stroke:none;fill-rule:nonzero;fill:rgb(100%,100%,100%);fill-opacity:1;" d="M 55.730469 49.65625 L 50.207031 49.65625 L 50.207031 44.136719 C 50.207031 43.53125 49.707031 43.03125 49.105469 43.03125 C 48.488281 43.03125 48 43.53125 48 44.136719 L 48 49.65625 L 42.480469 49.65625 C 41.875 49.65625 41.375 50.144531 41.375 50.761719 C 41.375 51.363281 41.875 51.863281 42.480469 51.863281 L 48 51.863281 L 48 57.375 C 48 57.988281 48.488281 58.480469 49.105469 58.480469 C 49.707031 58.480469 50.207031 57.988281 50.207031 57.375 L 50.207031 51.863281 L 55.730469 51.863281 C 56.332031 51.863281 56.824219 51.363281 56.824219 50.761719 C 56.824219 50.144531 56.332031 49.65625 55.730469 49.65625 Z M 55.730469 49.65625 "/>
</g>
</svg>
