<?xml version="1.0" encoding="UTF-8"?>
<svg xmlns="http://www.w3.org/2000/svg" xmlns:xlink="http://www.w3.org/1999/xlink" width="48pt" height="48pt" viewBox="0 0 48 48" version="1.1">
<g id="surface1">
<path style=" stroke:none;fill-rule:nonzero;fill:rgb(100%,88.235294%,49.019608%);fill-opacity:1;" d="M 23.347656 1.019531 L 2.632812 11.019531 C 2.371094 11.144531 2.207031 11.40625 2.207031 11.695312 L 2.207031 36.304688 C 2.207031 36.59375 2.371094 36.855469 2.632812 36.980469 L 23.347656 46.980469 C 23.757812 47.179688 24.242188 47.179688 24.652344 46.980469 L 45.367188 36.980469 C 45.628906 36.855469 45.792969 36.59375 45.792969 36.304688 L 45.792969 11.695312 C 45.792969 11.40625 45.628906 11.144531 45.367188 11.019531 L 24.652344 1.019531 C 24.242188 0.820312 23.757812 0.820312 23.347656 1.019531 Z M 23.347656 1.019531 "/>
<path style=" stroke:none;fill-rule:nonzero;fill:rgb(100%,76.470588%,31.372549%);fill-opacity:1;" d="M 2.332031 11.285156 C 2.253906 11.40625 2.207031 11.546875 2.207031 11.695312 L 2.207031 36.304688 C 2.207031 36.59375 2.371094 36.855469 2.632812 36.980469 L 23.347656 46.980469 C 23.554688 47.082031 23.777344 47.132812 24 47.132812 L 24 21.746094 Z M 2.332031 11.285156 "/>
<path style=" stroke:none;fill-rule:nonzero;fill:rgb(100%,81.960784%,39.215686%);fill-opacity:1;" d="M 45.667969 11.285156 C 45.746094 11.40625 45.792969 11.546875 45.792969 11.695312 L 45.792969 36.304688 C 45.792969 36.59375 45.628906 36.855469 45.367188 36.980469 L 24.652344 46.980469 C 24.445312 47.082031 24.222656 47.132812 24 47.132812 L 24 21.746094 Z M 45.667969 11.285156 "/>
<path style=" stroke:none;fill-rule:nonzero;fill:rgb(100%,50.196078%,52.941176%);fill-opacity:1;" d="M 38.324219 14.816406 L 16.582031 4.3125 L 10.847656 7.089844 L 32.640625 17.613281 Z M 38.324219 14.816406 "/>
<path style=" stroke:none;fill-rule:nonzero;fill:rgb(90.196078%,39.215686%,43.137255%);fill-opacity:1;" d="M 32.640625 17.613281 L 32.640625 25.761719 C 32.640625 26.039062 32.933594 26.222656 33.179688 26.101562 L 37.902344 23.824219 C 38.160156 23.699219 38.324219 23.433594 38.324219 23.144531 L 38.324219 14.816406 Z M 32.640625 17.613281 "/>
<path style=" stroke:none;fill-rule:nonzero;fill:rgb(0%,0%,0%);fill-opacity:1;" d="M 46.097656 10.589844 L 24.304688 0.0703125 C 24.113281 -0.0234375 23.886719 -0.0234375 23.695312 0.0703125 L 1.902344 10.589844 C 1.65625 10.707031 1.503906 10.953125 1.503906 11.222656 L 1.503906 36.777344 C 1.503906 37.046875 1.65625 37.292969 1.902344 37.410156 L 23.695312 47.929688 C 23.789062 47.976562 23.894531 48 24 48 C 24.105469 48 24.210938 47.976562 24.304688 47.929688 L 46.097656 37.410156 C 46.34375 37.292969 46.496094 37.046875 46.496094 36.777344 L 46.496094 11.222656 C 46.496094 10.953125 46.34375 10.707031 46.097656 10.589844 Z M 24 1.484375 L 44.175781 11.222656 L 38.328125 14.046875 C 38.289062 14.019531 38.25 13.992188 38.207031 13.972656 L 18.167969 4.296875 Z M 16.582031 5.09375 L 36.730469 14.820312 L 32.601562 16.8125 L 12.464844 7.089844 Z M 33.34375 18.015625 L 37.199219 16.152344 L 37.199219 23.515625 L 33.34375 25.378906 Z M 24.703125 46.175781 L 24.703125 22.1875 L 29.566406 19.839844 C 29.914062 19.671875 30.0625 19.25 29.894531 18.898438 C 29.726562 18.550781 29.304688 18.402344 28.953125 18.574219 L 24 20.964844 L 22.050781 20.023438 C 21.699219 19.855469 21.28125 20 21.113281 20.351562 C 20.941406 20.699219 21.089844 21.121094 21.4375 21.289062 L 23.296875 22.1875 L 23.296875 46.175781 L 2.910156 36.335938 L 2.910156 12.34375 L 18.433594 19.839844 C 18.53125 19.886719 18.636719 19.910156 18.738281 19.910156 C 19 19.910156 19.25 19.761719 19.375 19.511719 C 19.542969 19.160156 19.394531 18.742188 19.046875 18.574219 L 3.824219 11.222656 L 10.808594 7.851562 L 31.929688 18.046875 C 31.933594 18.054688 31.9375 18.058594 31.9375 18.0625 L 31.9375 26.5 C 31.9375 26.742188 32.0625 26.964844 32.269531 27.09375 C 32.382812 27.164062 32.511719 27.203125 32.640625 27.203125 C 32.746094 27.203125 32.851562 27.179688 32.949219 27.132812 L 38.207031 24.59375 C 38.453125 24.476562 38.605469 24.230469 38.605469 23.957031 L 38.605469 15.476562 L 45.089844 12.34375 L 45.089844 36.335938 Z M 24.703125 46.175781 "/>
<path style=" stroke:none;fill-rule:nonzero;fill:rgb(0%,0%,0%);fill-opacity:1;" d="M 8.710938 33.609375 L 5.511719 32.0625 C 5.164062 31.894531 4.742188 32.042969 4.574219 32.390625 C 4.40625 32.742188 4.550781 33.160156 4.902344 33.328125 L 8.101562 34.875 C 8.199219 34.921875 8.304688 34.945312 8.40625 34.945312 C 8.667969 34.945312 8.917969 34.796875 9.039062 34.546875 C 9.207031 34.195312 9.0625 33.777344 8.710938 33.609375 Z M 8.710938 33.609375 "/>
<path style=" stroke:none;fill-rule:nonzero;fill:rgb(0%,0%,0%);fill-opacity:1;" d="M 11.65625 31.691406 L 5.519531 28.730469 C 5.167969 28.558594 4.746094 28.707031 4.578125 29.054688 C 4.410156 29.40625 4.558594 29.828125 4.90625 29.996094 L 11.042969 32.957031 C 11.140625 33.003906 11.246094 33.027344 11.347656 33.027344 C 11.609375 33.027344 11.863281 32.882812 11.984375 32.628906 C 12.152344 32.28125 12.003906 31.859375 11.65625 31.691406 Z M 11.65625 31.691406 "/>
</g>
</svg>
