<?xml version="1.0" encoding="UTF-8"?>
<svg xmlns="http://www.w3.org/2000/svg" xmlns:xlink="http://www.w3.org/1999/xlink" width="16pt" height="16pt" viewBox="0 0 16 16" version="1.1">
<g id="surface1">
<path style=" stroke:none;fill-rule:nonzero;fill:rgb(0%,0%,0%);fill-opacity:1;" d="M 12.335938 6.964844 L 5.816406 0.441406 C 5.226562 -0.148438 4.210938 -0.148438 3.675781 0.441406 C 3.085938 1.027344 3.085938 1.992188 3.675781 2.582031 L 9.074219 8.035156 L 3.675781 13.433594 C 3.085938 14.023438 3.085938 14.984375 3.675781 15.570312 C 3.945312 15.839844 4.371094 16 4.742188 16 C 5.117188 16 5.546875 15.839844 5.816406 15.570312 L 12.335938 9.101562 C 12.605469 8.835938 12.765625 8.40625 12.765625 8.035156 C 12.765625 7.660156 12.605469 7.230469 12.335938 6.964844 Z M 11.585938 8.351562 L 5.117188 14.824219 C 4.960938 14.984375 4.636719 14.984375 4.476562 14.824219 C 4.320312 14.664062 4.320312 14.34375 4.476562 14.179688 L 10.253906 8.40625 C 10.464844 8.195312 10.464844 7.871094 10.253906 7.660156 L 4.425781 1.882812 C 4.261719 1.671875 4.261719 1.402344 4.425781 1.242188 C 4.53125 1.136719 4.636719 1.082031 4.742188 1.082031 C 4.851562 1.082031 4.960938 1.136719 5.066406 1.242188 L 11.589844 7.765625 C 11.695312 7.871094 11.75 7.980469 11.75 8.085938 C 11.695312 8.140625 11.644531 8.300781 11.585938 8.351562 Z M 11.585938 8.351562 "/>
</g>
</svg>
