<?xml version="1.0" encoding="UTF-8"?>
<svg xmlns="http://www.w3.org/2000/svg" xmlns:xlink="http://www.w3.org/1999/xlink" width="64pt" height="64pt" viewBox="0 0 64 64" version="1.1">
<g id="surface1">
<path style=" stroke:none;fill-rule:nonzero;fill:rgb(18.823529%,51.372549%,78.823529%);fill-opacity:1;" d="M 43.65625 49.96875 L 33.113281 44.699219 C 31.761719 44.019531 30.894531 42.625 30.894531 41.105469 L 30.894531 36.96875 C 31.1875 36.625 31.53125 36.199219 31.894531 35.6875 C 33.332031 33.65625 34.417969 31.425781 35.167969 29.082031 C 36.519531 28.667969 37.519531 27.417969 37.519531 25.925781 L 37.519531 21.519531 C 37.519531 20.542969 37.082031 19.675781 36.417969 19.074219 L 36.417969 12.6875 C 36.417969 12.6875 37.71875 2.761719 24.269531 2.761719 C 10.824219 2.761719 12.136719 12.6875 12.136719 12.6875 L 12.136719 19.074219 C 11.46875 19.675781 11.03125 20.542969 11.03125 21.519531 L 11.03125 25.925781 C 11.03125 27.09375 11.644531 28.113281 12.5625 28.707031 C 13.667969 33.511719 16.550781 36.96875 16.550781 36.96875 L 16.550781 41 C 16.550781 42.46875 15.75 43.824219 14.457031 44.53125 L 4.613281 49.894531 C 1.769531 51.449219 0 54.425781 0 57.667969 L 0 61.238281 L 48.550781 61.238281 L 48.550781 57.886719 C 48.550781 54.53125 46.65625 51.46875 43.65625 49.96875 Z M 43.65625 49.96875 "/>
<path style=" stroke:none;fill-rule:nonzero;fill:rgb(79.607843%,27.45098%,37.254902%);fill-opacity:1;" d="M 59.667969 51.25 L 48.875 46.574219 C 48.292969 46.28125 47.800781 45.65625 47.46875 44.980469 C 47.167969 44.363281 47.613281 43.636719 48.300781 43.636719 L 55.894531 43.636719 C 55.894531 43.636719 58.6875 43.90625 60.832031 42.980469 C 62.09375 42.4375 62.519531 40.863281 61.738281 39.738281 C 59.4375 36.46875 54.675781 28.75 54.53125 20.792969 C 54.53125 20.792969 54.261719 8.53125 42.167969 8.425781 C 39.75 8.449219 37.792969 8.949219 36.167969 9.738281 C 36.582031 11.394531 36.417969 12.6875 36.417969 12.6875 L 36.417969 19.074219 C 37.082031 19.675781 37.519531 20.542969 37.519531 21.519531 L 37.519531 25.925781 C 37.519531 27.417969 36.519531 28.667969 35.167969 29.082031 C 34.417969 31.417969 33.332031 33.65625 31.894531 35.6875 C 31.53125 36.199219 31.1875 36.625 30.894531 36.96875 L 30.894531 41.105469 C 30.894531 42.042969 31.230469 42.925781 31.800781 43.636719 L 34.832031 43.636719 C 35.59375 43.636719 35.925781 44.59375 35.332031 45.0625 C 35.125 45.230469 34.925781 45.375 34.75 45.511719 L 43.65625 49.96875 C 46.65625 51.46875 48.550781 54.53125 48.550781 57.886719 L 48.550781 61.238281 L 64 61.238281 L 64 58.261719 C 64 55.292969 62.324219 52.574219 59.667969 51.25 Z M 59.667969 51.25 "/>
</g>
</svg>
