<?xml version="1.0" encoding="UTF-8"?>
<svg xmlns="http://www.w3.org/2000/svg" xmlns:xlink="http://www.w3.org/1999/xlink" width="64pt" height="64pt" viewBox="0 0 64 64" version="1.1">
<g id="surface1">
<path style=" stroke:none;fill-rule:nonzero;fill:rgb(0%,0%,0%);fill-opacity:1;" d="M 59.21875 49.65625 L 48.792969 45.136719 C 48.550781 45.011719 48.28125 44.71875 48.042969 44.3125 L 55 44.3125 C 55.125 44.324219 57.988281 44.582031 60.292969 43.59375 C 61.167969 43.21875 61.8125 42.480469 62.074219 41.5625 C 62.332031 40.636719 62.167969 39.65625 61.625 38.875 C 59.636719 36.042969 54.988281 28.644531 54.84375 21.136719 C 54.84375 21.011719 54.417969 8.25 41.824219 8.144531 C 39.96875 8.167969 38.25 8.480469 36.6875 9.050781 C 36.34375 8.1875 35.84375 7.28125 35.105469 6.4375 C 32.90625 3.9375 29.355469 2.667969 24.53125 2.667969 C 19.707031 2.667969 16.15625 3.9375 13.96875 6.425781 C 11.4375 9.3125 11.675781 12.800781 11.730469 13.394531 L 11.730469 19.0625 C 11.050781 19.84375 10.667969 20.832031 10.667969 21.863281 L 10.667969 26.136719 C 10.667969 27.425781 11.261719 28.644531 12.261719 29.449219 C 13.238281 33.3125 15.28125 36.230469 16 37.167969 L 16 40.699219 C 16 41.730469 15.4375 42.675781 14.53125 43.175781 L 5.011719 48.363281 C 1.917969 50.050781 0 53.292969 0 56.8125 L 0 61.332031 L 64 61.332031 L 64 57.386719 C 64 54.09375 62.167969 51.125 59.21875 49.65625 Z M 46.9375 59.199219 L 2.136719 59.199219 L 2.136719 56.8125 C 2.136719 54.074219 3.625 51.550781 6.03125 50.238281 L 15.550781 45.050781 C 17.144531 44.175781 18.136719 42.511719 18.136719 40.699219 L 18.136719 36.417969 L 17.886719 36.113281 C 17.855469 36.082031 15.25 32.917969 14.25 28.582031 L 14.144531 28.15625 L 13.792969 27.925781 C 13.167969 27.519531 12.800781 26.855469 12.800781 26.136719 L 12.800781 21.863281 C 12.800781 21.269531 13.050781 20.707031 13.511719 20.292969 L 13.863281 19.980469 L 13.863281 13.332031 L 13.855469 13.199219 C 13.855469 13.167969 13.488281 10.207031 15.574219 7.832031 C 17.332031 5.824219 20.355469 4.800781 24.53125 4.800781 C 28.699219 4.800781 31.707031 5.8125 33.480469 7.8125 C 34.355469 8.8125 34.800781 9.917969 35.019531 10.875 C 35.042969 10.949219 35.050781 11.019531 35.074219 11.09375 C 35.082031 11.175781 35.105469 11.25 35.113281 11.324219 C 35.125 11.40625 35.136719 11.480469 35.144531 11.5625 C 35.15625 11.613281 35.167969 11.675781 35.175781 11.730469 C 35.1875 11.863281 35.199219 11.988281 35.207031 12.105469 C 35.207031 12.113281 35.207031 12.125 35.207031 12.136719 C 35.21875 12.25 35.230469 12.363281 35.230469 12.457031 C 35.230469 12.480469 35.230469 12.5 35.230469 12.511719 C 35.230469 12.605469 35.230469 12.6875 35.230469 12.761719 C 35.230469 12.769531 35.230469 12.78125 35.230469 12.792969 C 35.230469 13.042969 35.207031 13.1875 35.207031 13.199219 L 35.199219 19.980469 L 35.550781 20.292969 C 36.011719 20.707031 36.269531 21.269531 36.269531 21.863281 L 36.269531 26.136719 C 36.269531 27.0625 35.65625 27.875 34.75 28.15625 L 34.21875 28.324219 L 34.050781 28.855469 C 33.332031 31.074219 32.324219 33.125 31.019531 34.949219 C 30.707031 35.394531 30.394531 35.792969 30.136719 36.09375 L 29.863281 36.394531 L 29.863281 40.800781 C 29.863281 41.074219 29.894531 41.332031 29.9375 41.59375 C 29.949219 41.644531 29.957031 41.699219 29.96875 41.761719 C 30.011719 41.96875 30.0625 42.175781 30.136719 42.386719 C 30.144531 42.4375 30.167969 42.480469 30.1875 42.53125 C 30.269531 42.75 30.363281 42.96875 30.480469 43.175781 C 30.488281 43.199219 30.5 43.21875 30.519531 43.25 C 30.667969 43.519531 30.855469 43.78125 31.050781 44.019531 L 31.300781 44.3125 L 31.34375 44.3125 C 31.707031 44.675781 32.125 44.988281 32.605469 45.230469 L 42.792969 50.324219 C 45.34375 51.59375 46.9375 54.167969 46.9375 57.019531 Z M 61.863281 59.199219 L 49.0625 59.199219 L 49.0625 57.019531 C 49.0625 53.355469 47.03125 50.050781 43.75 48.417969 L 36.4375 44.761719 C 36.613281 44.34375 36.636719 43.875 36.480469 43.417969 C 36.21875 42.667969 35.53125 42.175781 34.738281 42.175781 L 32.375 42.175781 C 32.324219 42.09375 32.292969 42 32.25 41.90625 C 32.199219 41.78125 32.136719 41.667969 32.105469 41.53125 C 32.042969 41.300781 32 41.050781 32 40.800781 L 32 37.1875 C 32.238281 36.894531 32.5 36.550781 32.769531 36.175781 C 34.082031 34.3125 35.144531 32.230469 35.917969 29.988281 C 37.425781 29.300781 38.394531 27.8125 38.394531 26.136719 L 38.394531 21.863281 C 38.394531 20.84375 38.019531 19.84375 37.332031 19.0625 L 37.332031 13.394531 C 37.363281 13.125 37.417969 12.25 37.238281 11.113281 C 38.613281 10.574219 40.15625 10.292969 41.824219 10.28125 C 52.3125 10.363281 52.699219 20.738281 52.707031 21.175781 C 52.863281 29.269531 57.769531 37.105469 59.875 40.09375 C 60.050781 40.355469 60.113281 40.675781 60.019531 40.980469 C 59.980469 41.15625 59.832031 41.46875 59.449219 41.636719 C 57.65625 42.40625 55.230469 42.1875 55.105469 42.175781 L 47.761719 42.175781 C 47.074219 42.175781 46.449219 42.53125 46.09375 43.113281 C 45.730469 43.699219 45.699219 44.40625 46 45.011719 C 46.332031 45.6875 46.925781 46.582031 47.894531 47.074219 L 58.292969 51.574219 C 60.5 52.6875 61.863281 54.917969 61.863281 57.386719 Z M 61.863281 59.199219 "/>
</g>
</svg>
