<?xml version="1.0" encoding="UTF-8"?>
<svg xmlns="http://www.w3.org/2000/svg" xmlns:xlink="http://www.w3.org/1999/xlink" width="64pt" height="64pt" viewBox="0 0 64 64" version="1.1">
<g id="surface1">
<path style=" stroke:none;fill-rule:nonzero;fill:rgb(78.039216%,88.627451%,98.823529%);fill-opacity:1;" d="M 36 19 C 36 28.386719 28.386719 36 19 36 C 9.613281 36 2 28.386719 2 19 C 2 9.613281 9.613281 2 19 2 C 28.386719 2 36 9.613281 36 19 Z M 36 19 "/>
<path style=" stroke:none;fill-rule:nonzero;fill:rgb(92.156863%,96.862745%,99.607843%);fill-opacity:1;" d="M 2 19 C 2 23.21875 3.542969 27.074219 6.082031 30.042969 C 8.449219 31.292969 11.144531 32 14 32 C 23.386719 32 31 24.386719 31 15 C 31 10.78125 29.457031 6.925781 26.917969 3.957031 C 24.550781 2.707031 21.855469 2 19 2 C 9.613281 2 2 9.613281 2 19 Z M 2 19 "/>
<path style=" stroke:none;fill-rule:nonzero;fill:rgb(96.078431%,72.54902%,32.54902%);fill-opacity:1;" d="M 29 11 L 9 11 C 7.894531 11 7 11.894531 7 13 L 7 25 C 7 26.105469 7.894531 27 9 27 L 29 27 C 30.105469 27 31 26.105469 31 25 L 31 13 C 31 11.894531 30.105469 11 29 11 Z M 29 11 "/>
<path style=" stroke:none;fill-rule:nonzero;fill:rgb(97.647059%,81.960784%,54.509804%);fill-opacity:1;" d="M 29 11 L 9 11 C 7.894531 11 7 11.894531 7 13 L 7 17 L 31 17 L 31 13 C 31 11.894531 30.105469 11 29 11 Z M 29 11 "/>
<path style=" stroke:none;fill-rule:nonzero;fill:rgb(29.803922%,65.490196%,49.411765%);fill-opacity:1;" d="M 47.792969 46.113281 L 62 41 L 62 38.75 C 62 36.375 60.949219 34.125 59.125 32.605469 L 57.800781 31.5 C 56.636719 30.53125 55.167969 30 53.644531 30 C 52.5625 30 51.5 30.269531 50.550781 30.792969 L 17 49 L 10.175781 42.175781 C 9.417969 41.417969 8.40625 41 7.34375 41 L 2 41 L 12 59 L 22.292969 55.300781 "/>
<path style=" stroke:none;fill-rule:nonzero;fill:rgb(32.941176%,71.764706%,55.686275%);fill-opacity:1;" d="M 10.175781 42.175781 C 9.417969 41.417969 8.40625 41 7.34375 41 L 2 41 L 5.824219 47.886719 C 9.25 48.480469 13.011719 48.84375 16.957031 48.957031 Z M 10.175781 42.175781 "/>
<path style=" stroke:none;fill-rule:nonzero;fill:rgb(32.941176%,71.764706%,55.686275%);fill-opacity:1;" d="M 52 37 C 52 35.125 50.832031 33.34375 48.75 31.761719 L 17.074219 48.957031 C 17.875 48.988281 18.675781 49 19.5 49 C 37.449219 49 52 43.625 52 37 Z M 52 37 "/>
<path style=" stroke:none;fill-rule:nonzero;fill:rgb(89.411765%,96.078431%,99.215686%);fill-opacity:1;" d="M 44.90625 33.855469 L 45 34 L 51 36 L 58.625 32.1875 L 57.800781 31.511719 C 56.636719 30.53125 55.167969 30 53.644531 30 C 52.5625 30 51.5 30.269531 50.550781 30.792969 Z M 44.90625 33.855469 "/>
<path style=" stroke:none;fill-rule:nonzero;fill:rgb(84.705882%,86.27451%,89.411765%);fill-opacity:1;" d="M 22 53 L 31 49 L 28 59 L 23 61 Z M 22 53 "/>
<path style=" stroke:none;fill-rule:nonzero;fill:rgb(84.705882%,86.27451%,89.411765%);fill-opacity:1;" d="M 37 47 L 49 42 L 44 59 L 38 62 Z M 37 47 "/>
<path style=" stroke:none;fill-rule:nonzero;fill:rgb(84.705882%,86.27451%,89.411765%);fill-opacity:1;" d="M 30 42 L 23 40 L 17 41 L 22 46 "/>
<path style=" stroke:none;fill-rule:nonzero;fill:rgb(0%,0%,0%);fill-opacity:1;" d="M 12 60 C 11.644531 60 11.300781 59.8125 11.125 59.488281 L 1.125 41.488281 C 0.957031 41.175781 0.957031 40.800781 1.136719 40.488281 C 1.3125 40.1875 1.644531 40 2 40 L 7.34375 40 C 8.675781 40 9.9375 40.519531 10.875 41.46875 L 17.175781 47.761719 L 50.074219 29.90625 C 52.707031 28.480469 56.144531 28.824219 58.449219 30.738281 L 59.761719 31.832031 C 61.824219 33.550781 63 36.074219 63 38.75 L 63 41 C 63 41.425781 62.738281 41.800781 62.34375 41.9375 L 48.125 47.050781 L 47.449219 45.175781 L 61 40.300781 L 61 38.75 C 61 36.667969 60.082031 34.699219 58.480469 33.363281 L 57.167969 32.269531 C 55.480469 30.863281 52.957031 30.613281 51.03125 31.667969 L 17.480469 49.875 C 17.09375 50.09375 16.605469 50.019531 16.292969 49.707031 L 9.46875 42.875 C 8.894531 42.3125 8.144531 42 7.34375 42 L 3.699219 42 L 12.457031 57.769531 L 21.949219 54.355469 L 22.625 56.238281 L 12.34375 59.9375 C 12.230469 59.980469 12.113281 60 12 60 Z M 12 60 "/>
<path style=" stroke:none;fill-rule:nonzero;fill:rgb(0%,0%,0%);fill-opacity:1;" d="M 29.613281 51.605469 L 36.875 48.988281 L 37.550781 50.875 L 30.292969 53.488281 Z M 29.613281 51.605469 "/>
<path style=" stroke:none;fill-rule:nonzero;fill:rgb(0%,0%,0%);fill-opacity:1;" d="M 23 62 C 22.824219 62 22.644531 61.949219 22.488281 61.863281 C 22.230469 61.699219 22.042969 61.425781 22.011719 61.125 L 21.011719 53.125 C 20.949219 52.6875 21.1875 52.261719 21.59375 52.082031 L 30.59375 48.082031 C 30.949219 47.925781 31.363281 47.988281 31.65625 48.25 C 31.957031 48.511719 32.074219 48.917969 31.957031 49.292969 L 28.957031 59.292969 C 28.875 59.582031 28.65625 59.8125 28.375 59.925781 L 23.375 61.925781 C 23.25 61.980469 23.125 62 23 62 Z M 23.082031 53.613281 L 23.832031 59.59375 L 27.175781 58.25 L 29.417969 50.800781 Z M 23.082031 53.613281 "/>
<path style=" stroke:none;fill-rule:nonzero;fill:rgb(0%,0%,0%);fill-opacity:1;" d="M 38 63 C 37.824219 63 37.65625 62.957031 37.5 62.863281 C 37.207031 62.699219 37.019531 62.394531 37 62.0625 L 36 47.0625 C 35.980469 46.636719 36.21875 46.238281 36.613281 46.074219 L 48.613281 41.074219 C 48.96875 40.925781 49.375 41 49.667969 41.261719 C 49.957031 41.511719 50.074219 41.917969 49.957031 42.28125 L 44.957031 59.28125 C 44.886719 59.550781 44.699219 59.769531 44.449219 59.894531 L 38.449219 62.894531 C 38.300781 62.96875 38.15625 63 38 63 Z M 38.042969 47.644531 L 38.894531 60.4375 L 43.167969 58.300781 L 47.449219 43.730469 Z M 38.042969 47.644531 "/>
<path style=" stroke:none;fill-rule:nonzero;fill:rgb(0%,0%,0%);fill-opacity:1;" d="M 21.292969 46.707031 L 16.292969 41.707031 C 16.03125 41.4375 15.9375 41.050781 16.050781 40.699219 C 16.167969 40.332031 16.46875 40.074219 16.832031 40.011719 L 22.832031 39.011719 C 22.980469 38.988281 23.136719 39 23.269531 39.042969 L 30.269531 41.042969 L 29.730469 42.957031 L 22.9375 41.019531 L 19.082031 41.667969 L 22.707031 45.292969 Z M 21.292969 46.707031 "/>
<path style=" stroke:none;fill-rule:nonzero;fill:rgb(0%,0%,0%);fill-opacity:1;" d="M 51 37 C 50.894531 37 50.792969 36.980469 50.6875 36.949219 L 44.6875 34.949219 L 45.3125 33.050781 L 50.925781 34.917969 L 58.550781 31.105469 L 59.449219 32.894531 L 51.449219 36.894531 C 51.300781 36.96875 51.15625 37 51 37 Z M 51 37 "/>
<path style=" stroke:none;fill-rule:nonzero;fill:rgb(0%,0%,0%);fill-opacity:1;" d="M 29 28 L 9 28 C 7.34375 28 6 26.65625 6 25 L 6 13 C 6 11.34375 7.34375 10 9 10 L 29 10 C 30.65625 10 32 11.34375 32 13 L 32 25 C 32 26.65625 30.65625 28 29 28 Z M 9 12 C 8.449219 12 8 12.449219 8 13 L 8 25 C 8 25.550781 8.449219 26 9 26 L 29 26 C 29.550781 26 30 25.550781 30 25 L 30 13 C 30 12.449219 29.550781 12 29 12 Z M 9 12 "/>
<path style=" stroke:none;fill-rule:nonzero;fill:rgb(0%,0%,0%);fill-opacity:1;" d="M 25 11 L 23 11 L 23 8 L 15 8 L 15 11 L 13 11 L 13 7 C 13 6.449219 13.449219 6 14 6 L 24 6 C 24.550781 6 25 6.449219 25 7 Z M 25 11 "/>
<path style=" stroke:none;fill-rule:nonzero;fill:rgb(0%,0%,0%);fill-opacity:1;" d="M 7 16 L 31 16 L 31 18 L 7 18 Z M 7 16 "/>
<path style=" stroke:none;fill-rule:nonzero;fill:rgb(0%,0%,0%);fill-opacity:1;" d="M 10 14 L 12 14 L 12 20 L 10 20 Z M 10 14 "/>
<path style=" stroke:none;fill-rule:nonzero;fill:rgb(0%,0%,0%);fill-opacity:1;" d="M 26 14 L 28 14 L 28 20 L 26 20 Z M 26 14 "/>
<path style=" stroke:none;fill-rule:nonzero;fill:rgb(0%,0%,0%);fill-opacity:1;" d="M 19 37 C 9.074219 37 1 28.925781 1 19 C 1 9.074219 9.074219 1 19 1 C 28.925781 1 37 9.074219 37 19 C 37 28.925781 28.925781 37 19 37 Z M 19 3 C 10.175781 3 3 10.175781 3 19 C 3 27.824219 10.175781 35 19 35 C 27.824219 35 35 27.824219 35 19 C 35 10.175781 27.824219 3 19 3 Z M 19 3 "/>
<path style=" stroke:none;fill-rule:nonzero;fill:rgb(0%,0%,0%);fill-opacity:1;" d="M 58 20 L 56 20 L 56 18 L 58 18 Z M 54 20 L 52 20 L 52 18 L 54 18 Z M 50 20 L 48 20 L 48 18 L 50 18 Z M 46 20 L 44 20 L 44 18 L 46 18 Z M 42 20 L 40 20 L 40 18 L 42 18 Z M 38 20 L 36 20 L 36 18 L 38 18 Z M 60.3125 19.78125 L 59.65625 17.894531 C 60.074219 17.75 60.4375 17.457031 60.6875 17.082031 L 62.363281 18.167969 C 61.886719 18.917969 61.144531 19.488281 60.3125 19.78125 Z M 60.988281 15.8125 C 60.949219 15.363281 60.761719 14.949219 60.449219 14.625 L 61.894531 13.238281 C 62.511719 13.886719 62.894531 14.730469 62.980469 15.625 Z M 59.28125 14.019531 C 59.1875 14.011719 59.09375 14 59 14 L 57.425781 14 L 57.425781 12 L 59 12 C 59.1875 12 59.386719 12.011719 59.574219 12.042969 Z M 55.425781 14 L 53.425781 14 L 53.425781 12 L 55.425781 12 Z M 51.425781 14 L 49.425781 14 L 49.425781 12 L 51.425781 12 Z M 47.425781 14 L 47 14 C 46.292969 14 45.605469 13.8125 45 13.46875 L 46 11.730469 C 46.300781 11.90625 46.644531 12 47 12 L 47.425781 12 Z M 43.28125 11.488281 C 43.09375 11.011719 43 10.511719 43 10 C 43 9.613281 43.050781 9.238281 43.167969 8.875 L 45.082031 9.4375 C 45.03125 9.613281 45 9.800781 45 10 C 45 10.261719 45.050781 10.511719 45.144531 10.738281 Z M 45.84375 8.375 L 44.675781 6.738281 C 45.355469 6.261719 46.15625 6 47 6 L 47.144531 6 L 47.144531 8 L 47 8 C 46.582031 8 46.175781 8.125 45.84375 8.375 Z M 55.144531 8 L 53.144531 8 L 53.144531 6 L 55.144531 6 Z M 51.144531 8 L 49.144531 8 L 49.144531 6 L 51.144531 6 Z M 51.144531 8 "/>
</g>
</svg>
