<svg id="Layer_3" enable-background="new 0 0 64 64" height="512" viewBox="0 0 64 64" width="512" xmlns="http://www.w3.org/2000/svg"><path d="m59.762 31.833-1.316-1.097c-2.3-1.917-5.738-2.255-8.372-.829l-20.261 11-6.538-1.868c-.141-.041-.294-.05-.438-.025l-6 1c-.37.062-.674.324-.788.681s-.02.748.245 1.012l4.238 4.238-3.352 1.82-6.3-6.301c-.945-.944-2.201-1.464-3.537-1.464h-5.343c-.354 0-.683.188-.862.493-.18.306-.184.683-.012.993l10 18c.181.325.52.514.874.514.113 0 .228-.019.339-.059l9.111-3.28.558 4.463c.038.308.217.58.484.737.155.092.331.139.508.139.126 0 .252-.023.371-.071l5-2c.283-.113.499-.35.587-.642l1.792-5.974 5.535-1.993.716 10.746c.022.334.211.635.501.801.154.089.326.133.498.133.153 0 .307-.035.447-.105l6-3c.248-.124.434-.346.512-.612l3.646-12.397 13.734-4.944c.396-.144.661-.52.661-.942v-2.253c0-2.679-1.181-5.199-3.238-6.914zm-8.735-.167c1.788-.971 4.075-.814 5.745.33l-5.849 2.925-3.65-1.217zm-31.946 10.001 3.861-.644 4.36 1.246-4.938 2.681zm8.1 16.583-3.349 1.34-.748-5.978 6.333-2.814zm15.982.05-4.266 2.133-.853-12.785 9.404-3.918zm17.837-18.003-11.695 4.21.654-2.225c.109-.37-.004-.77-.291-1.027-.288-.257-.697-.328-1.053-.178l-12 5c-.395.165-.642.562-.613.989l.145 2.178-4.682 1.685.493-1.642c.112-.374-.004-.779-.297-1.038-.294-.259-.711-.322-1.067-.163l-9 4c-.402.179-.641.6-.586 1.038l.188 1.503-8.735 3.144-8.762-15.771h3.644c.802 0 1.556.312 2.122.878l6.828 6.829c.313.314.797.384 1.185.172l27.389-14.869 5.817 1.939c.103.034.21.051.316.051.154 0 .307-.036.447-.105l7.039-3.52c1.598 1.334 2.514 3.291 2.514 5.372z"/><path d="m29 28c1.654 0 3-1.346 3-3v-12c0-1.654-1.346-3-3-3h-4v-3c0-.552-.447-1-1-1h-10c-.553 0-1 .448-1 1v3h-4c-1.654 0-3 1.346-3 3v12c0 1.654 1.346 3 3 3zm-14-20h8v2h-8zm-6 4h20c.552 0 1 .449 1 1v3h-2v-2h-2v2h-14v-2h-2v2h-2v-3c0-.551.448-1 1-1zm-1 13v-7h2v2h2v-2h14v2h2v-2h2v7c0 .551-.448 1-1 1h-20c-.552 0-1-.449-1-1z"/><path d="m19 37c9.587 0 17.426-7.541 17.949-17h1.051v-2h-1.051c-.523-9.459-8.362-17-17.949-17-9.925 0-18 8.075-18 18s8.075 18 18 18zm0-34c8.822 0 16 7.178 16 16s-7.178 16-16 16-16-7.178-16-16 7.178-16 16-16z"/><path d="m49.144 6h2v2h-2z"/><path d="m53.144 6h2v2h-2z"/><path d="m53.429 12h2v2h-2z"/><path d="m56 18h2v2h-2z"/><path d="m62.981 15.621c-.084-.888-.47-1.733-1.087-2.38l-1.447 1.38c.309.324.502.746.544 1.189z"/><path d="m59.285 14.02.283-1.979c-.185-.027-.376-.041-.568-.041h-1.571v2h1.571c.097 0 .191.007.285.02z"/><path d="m62.365 18.163-1.682-1.082c-.242.376-.607.664-1.029.81l.654 1.89c.843-.292 1.574-.866 2.057-1.618z"/><path d="m52 18h2v2h-2z"/><path d="m45.143 10.744c-.095-.237-.143-.487-.143-.744 0-.193.027-.382.08-.562l-1.918-.566c-.107.364-.162.744-.162 1.128 0 .512.096 1.012.285 1.486z"/><path d="m40 18h2v2h-2z"/><path d="m46.998 8h.002.144v-2h-.143c-.001 0-.002 0-.003 0-.838 0-1.64.256-2.319.742l1.162 1.628c.339-.242.738-.37 1.157-.37z"/><path d="m48 18h2v2h-2z"/><path d="m49.429 12h2v2h-2z"/><path d="m44 18h2v2h-2z"/><path d="m47.429 14v-2h-.429c-.353 0-.697-.092-.998-.267l-1.004 1.73c.606.351 1.298.537 2.002.537z"/></svg>