<svg id="Layer_3" enable-background="new 0 0 64 64" height="512" viewBox="0 0 64 64" width="512" xmlns="http://www.w3.org/2000/svg"><circle cx="19" cy="19" fill="#c7e2fc" r="17"/><path d="m2 19c0 4.218 1.545 8.069 4.088 11.04 2.364 1.247 5.053 1.96 7.912 1.96 9.389 0 17-7.611 17-17 0-4.218-1.545-8.069-4.088-11.04-2.364-1.247-5.053-1.96-7.912-1.96-9.389 0-17 7.611-17 17z" fill="#ebf7fe"/><path d="m29 11h-20c-1.105 0-2 .895-2 2v12c0 1.105.895 2 2 2h20c1.105 0 2-.895 2-2v-12c0-1.105-.895-2-2-2z" fill="#f5b953"/><path d="m29 11h-20c-1.105 0-2 .895-2 2v4h24v-4c0-1.105-.895-2-2-2z" fill="#f9d18b"/><path d="m47.789 46.116 14.211-5.116v-2.253c0-2.374-1.055-4.626-2.879-6.146l-1.315-1.096c-1.167-.972-2.638-1.505-4.157-1.505-1.082 0-2.147.27-3.098.787l-33.551 18.213-6.828-6.828c-.751-.751-1.768-1.172-2.829-1.172h-5.343l10 18 10.287-3.703" fill="#4ca77e"/><path d="m10.172 42.172c-.751-.751-1.768-1.172-2.829-1.172h-5.343l3.826 6.886c3.429.588 7.182.961 11.134 1.074z" fill="#54b78e"/><path d="m52 37c0-1.877-1.169-3.653-3.25-5.235l-31.682 17.198c.804.022 1.613.037 2.432.037 17.949 0 32.5-5.373 32.5-12z" fill="#54b78e"/><path d="m44.902 33.853.098.147 6 2 7.625-3.812-.819-.682c-1.167-.973-2.638-1.506-4.157-1.506-1.082 0-2.147.27-3.098.787z" fill="#e4f5fd"/><g fill="#d8dce4"><path d="m22 53 9-4-3 10-5 2z"/><path d="m37 47 12-5-5 17-6 3z"/><path d="m30 42-7-2-6 1 5 5"/></g><path d="m12 60c-.354 0-.693-.189-.874-.514l-10-18c-.172-.31-.168-.688.012-.993.179-.305.508-.493.862-.493h5.343c1.336 0 2.592.52 3.536 1.464l6.3 6.301 32.895-17.857c2.634-1.427 6.072-1.088 8.372.829l1.316 1.097c2.057 1.714 3.238 4.234 3.238 6.913v2.253c0 .422-.265.798-.661.941l-14.211 5.116-.678-1.882 13.55-4.878v-1.55c0-2.083-.918-4.044-2.52-5.378l-1.315-1.096c-1.688-1.405-4.208-1.655-6.138-.607l-33.55 18.213c-.388.212-.871.142-1.185-.172l-6.828-6.829c-.566-.566-1.319-.878-2.121-.878h-3.644l8.762 15.771 9.487-3.415.678 1.882-10.287 3.703c-.111.04-.226.059-.339.059z"/><path d="m29.71 50.236h7.714v2h-7.714z" transform="matrix(.941 -.339 .339 .941 -15.375 14.405)"/><path d="m23 62c-.177 0-.353-.047-.508-.139-.268-.158-.446-.43-.484-.737l-1-8c-.055-.438.184-.859.586-1.038l9-4c.356-.159.773-.096 1.067.163.293.258.409.664.297 1.038l-3 10c-.088.292-.304.528-.587.642l-5 2c-.119.048-.245.071-.371.071zm.084-8.388.748 5.978 3.349-1.34 2.236-7.453z"/><path d="m38 63c-.172 0-.344-.044-.497-.132-.29-.167-.479-.467-.501-.801l-1-15c-.028-.427.219-.825.613-.989l12-5c.355-.149.765-.079 1.053.178.287.257.4.657.291 1.027l-5 17c-.078.266-.264.488-.512.612l-6 3c-.14.07-.294.105-.447.105zm.045-15.352.853 12.785 4.266-2.133 4.286-14.571z"/><path d="m21.293 46.707-5-5c-.265-.265-.359-.655-.245-1.012s.418-.62.788-.681l6-1c.145-.025.298-.016.438.025l7 2-.549 1.923-6.783-1.938-3.861.644 3.626 3.626z"/><path d="m51 37c-.106 0-.213-.017-.316-.051l-6-2 .633-1.897 5.606 1.869 7.63-3.815.895 1.789-8 4c-.141.069-.294.105-.448.105z"/><path d="m29 28h-20c-1.654 0-3-1.346-3-3v-12c0-1.654 1.346-3 3-3h20c1.654 0 3 1.346 3 3v12c0 1.654-1.346 3-3 3zm-20-16c-.552 0-1 .449-1 1v12c0 .551.448 1 1 1h20c.552 0 1-.449 1-1v-12c0-.551-.448-1-1-1z"/><path d="m25 11h-2v-3h-8v3h-2v-4c0-.552.447-1 1-1h10c.553 0 1 .448 1 1z"/><path d="m7 16h24v2h-24z"/><path d="m10 14h2v6h-2z"/><path d="m26 14h2v6h-2z"/><path d="m19 37c-9.925 0-18-8.075-18-18s8.075-18 18-18 18 8.075 18 18-8.075 18-18 18zm0-34c-8.822 0-16 7.178-16 16s7.178 16 16 16 16-7.178 16-16-7.178-16-16-16z"/><path d="m58 20h-2v-2h2zm-4 0h-2v-2h2zm-4 0h-2v-2h2zm-4 0h-2v-2h2zm-4 0h-2v-2h2zm-4 0h-2v-2h2zm22.309-.219-.654-1.89c.422-.146.787-.434 1.029-.81l1.682 1.082c-.484.752-1.215 1.326-2.057 1.618zm.682-3.972c-.042-.443-.235-.865-.544-1.189l1.447-1.38c.617.647 1.003 1.493 1.087 2.38zm-1.706-1.789c-.094-.013-.188-.02-.285-.02h-1.571v-2h1.571c.192 0 .383.014.568.041zm-3.856-.02h-2v-2h2zm-4 0h-2v-2h2zm-4 0h-.429c-.704 0-1.396-.186-2.002-.536l1.004-1.73c.301.174.645.266.998.266h.429zm-4.144-2.514c-.189-.474-.285-.974-.285-1.486 0-.384.055-.764.162-1.128l1.918.566c-.053.18-.08.369-.08.562 0 .257.048.507.143.744zm2.556-3.116-1.162-1.628c.679-.486 1.481-.742 2.319-.742h.003.143v2h-.144c-.001 0-.001 0-.002 0-.419 0-.818.128-1.157.37zm9.303-.37h-2v-2h2zm-4 0h-2v-2h2z"/></svg>