<?xml version="1.0" encoding="UTF-8"?>
<svg xmlns="http://www.w3.org/2000/svg" xmlns:xlink="http://www.w3.org/1999/xlink" width="64pt" height="64pt" viewBox="0 0 64 64" version="1.1">
<g id="surface1">
<path style=" stroke:none;fill-rule:nonzero;fill:rgb(81.176471%,61.960784%,46.27451%);fill-opacity:1;" d="M 44 36 L 44 60 C 44 61.101562 43.101562 62 42 62 L 32 62 L 32 50 L 16 50 L 16 36 C 16 34.898438 16.898438 34 18 34 L 26 34 L 26 44 L 30 44 L 34.441406 34 L 42 34 C 43.101562 34 44 34.898438 44 36 Z M 44 36 "/>
<path style=" stroke:none;fill-rule:nonzero;fill:rgb(82.745098%,62.745098%,42.352941%);fill-opacity:1;" d="M 42 34 L 50 34 L 50 40 L 56 40 L 56 34 L 60 34 C 61.101562 34 62 34.898438 62 36 L 62 60 C 62 61.101562 61.101562 62 60 62 L 42 62 C 43.101562 62 44 61.101562 44 60 L 44 36 C 44 34.898438 43.101562 34 42 34 Z M 42 34 "/>
<path style=" stroke:none;fill-rule:nonzero;fill:rgb(98.823529%,84.313725%,43.921569%);fill-opacity:1;" d="M 32 50 L 32 62 L 18 62 C 16.898438 62 16 61.101562 16 60 L 16 50 Z M 32 50 "/>
<path style=" stroke:none;fill-rule:nonzero;fill:rgb(98.823529%,84.313725%,43.921569%);fill-opacity:1;" d="M 50 34 L 56 34 L 56 40 L 50 40 Z M 50 34 "/>
<path style=" stroke:none;fill-rule:nonzero;fill:rgb(100%,50.980392%,43.137255%);fill-opacity:1;" d="M 7 6 L 11 16 L 2 16 L 2 6 Z M 7 6 "/>
<path style=" stroke:none;fill-rule:nonzero;fill:rgb(100%,50.980392%,43.137255%);fill-opacity:1;" d="M 30 2 L 36.21875 16 L 26 16 L 26 2 Z M 30 2 "/>
<path style=" stroke:none;fill-rule:nonzero;fill:rgb(90.196078%,91.372549%,92.941176%);fill-opacity:1;" d="M 61.550781 25.261719 C 61.851562 25.738281 62 26.300781 62 26.871094 C 62 28.601562 60.601562 30 58.871094 30 L 19.078125 30 C 15.398438 30 11.890625 28.921875 8.921875 27.011719 C 5.960938 25.101562 3.519531 22.351562 2 19 L 2 16 L 44 16 C 44 19.871094 47.128906 23 51 23 L 59.960938 23 C 60.539062 23.710938 61.070312 24.460938 61.550781 25.261719 Z M 61.550781 25.261719 "/>
<path style=" stroke:none;fill-rule:nonzero;fill:rgb(100%,50.980392%,43.137255%);fill-opacity:1;" d="M 38 26 L 36.21875 30 L 34.441406 34 L 30 44 L 26 44 L 26 26 Z M 38 26 "/>
<path style=" stroke:none;fill-rule:nonzero;fill:rgb(41.176471%,83.921569%,95.686275%);fill-opacity:1;" d="M 59.960938 23 L 51 23 C 47.128906 23 44 19.871094 44 16 L 45.210938 16 C 48.558594 16 51.78125 16.878906 54.601562 18.46875 C 56.640625 19.628906 58.460938 21.148438 59.960938 23 Z M 59.960938 23 "/>
<path style=" stroke:none;fill-rule:nonzero;fill:rgb(0%,0%,0%);fill-opacity:1;" d="M 27 20 L 29 20 L 29 22 L 27 22 Z M 27 20 "/>
<path style=" stroke:none;fill-rule:nonzero;fill:rgb(0%,0%,0%);fill-opacity:1;" d="M 35 20 L 37 20 L 37 22 L 35 22 Z M 35 20 "/>
<path style=" stroke:none;fill-rule:nonzero;fill:rgb(0%,0%,0%);fill-opacity:1;" d="M 15 20 L 17 20 L 17 22 L 15 22 Z M 15 20 "/>
<path style=" stroke:none;fill-rule:nonzero;fill:rgb(0%,0%,0%);fill-opacity:1;" d="M 31 20 L 33 20 L 33 22 L 31 22 Z M 31 20 "/>
<path style=" stroke:none;fill-rule:nonzero;fill:rgb(0%,0%,0%);fill-opacity:1;" d="M 19 20 L 21 20 L 21 22 L 19 22 Z M 19 20 "/>
<path style=" stroke:none;fill-rule:nonzero;fill:rgb(0%,0%,0%);fill-opacity:1;" d="M 39 20 L 41 20 L 41 22 L 39 22 Z M 39 20 "/>
<path style=" stroke:none;fill-rule:nonzero;fill:rgb(0%,0%,0%);fill-opacity:1;" d="M 23 20 L 25 20 L 25 22 L 23 22 Z M 23 20 "/>
<path style=" stroke:none;fill-rule:nonzero;fill:rgb(0%,0%,0%);fill-opacity:1;" d="M 60 33 L 35.984375 33 L 36.871094 31 L 58.867188 31 C 61.144531 31 63 29.144531 63 26.867188 C 63 26.117188 62.796875 25.382812 62.410156 24.742188 C 58.804688 18.734375 52.214844 15 45.207031 15 L 36.871094 15 L 30.648438 1 L 25 1 L 25 15 L 11.675781 15 L 7.675781 5 L 1 5 L 1 19.21875 L 1.089844 19.414062 C 4.289062 26.453125 11.351562 31 19.082031 31 L 25 31 L 25 33 L 18 33 C 16.347656 33 15 34.347656 15 36 L 15 60 C 15 61.652344 16.347656 63 18 63 L 60 63 C 61.652344 63 63 61.652344 63 60 L 63 36 C 63 34.347656 61.652344 33 60 33 Z M 51 35 L 55 35 L 55 39 L 51 39 Z M 29.351562 43 L 27 43 L 27 27 L 36.460938 27 Z M 57.664062 22 L 51 22 C 48.03125 22 45.570312 19.832031 45.089844 17 L 45.203125 17 C 49.878906 17 54.34375 18.847656 57.664062 22 Z M 27 3 L 29.351562 3 L 34.683594 15 L 27 15 Z M 6.324219 7 L 9.523438 15 L 3 15 L 3 7 Z M 19.082031 29 C 12.203125 29 5.914062 24.996094 3 18.78125 L 3 17 L 43.070312 17 C 43.5625 20.941406 46.929688 24 51 24 L 59.476562 24 C 59.914062 24.5625 60.324219 25.152344 60.695312 25.769531 C 60.894531 26.101562 61 26.480469 61 26.867188 C 61 28.042969 60.042969 29 58.867188 29 L 37.761719 29 L 39.539062 25 L 25 25 L 25 29 Z M 17 60 L 17 51 L 31 51 L 31 61 L 18 61 C 17.449219 61 17 60.550781 17 60 Z M 41 61 L 33 61 L 33 49 L 17 49 L 17 36 C 17 35.449219 17.449219 35 18 35 L 25 35 L 25 45 L 30.648438 45 L 35.09375 35 L 42 35 C 42.550781 35 43 35.449219 43 36 L 43 60 C 43 60.550781 42.550781 61 42 61 Z M 61 60 C 61 60.550781 60.550781 61 60 61 L 44.816406 61 C 44.929688 60.6875 45 60.351562 45 60 L 45 36 C 45 35.648438 44.929688 35.3125 44.816406 35 L 49 35 L 49 41 L 57 41 L 57 35 L 60 35 C 60.550781 35 61 35.449219 61 36 Z M 61 60 "/>
<path style=" stroke:none;fill-rule:nonzero;fill:rgb(0%,0%,0%);fill-opacity:1;" d="M 27 57 L 29 57 L 29 59 L 27 59 Z M 27 57 "/>
<path style=" stroke:none;fill-rule:nonzero;fill:rgb(0%,0%,0%);fill-opacity:1;" d="M 19 57 L 25 57 L 25 59 L 19 59 Z M 19 57 "/>
<path style=" stroke:none;fill-rule:nonzero;fill:rgb(0%,0%,0%);fill-opacity:1;" d="M 19 53 L 29 53 L 29 55 L 19 55 Z M 19 53 "/>
<path style=" stroke:none;fill-rule:nonzero;fill:rgb(0%,0%,0%);fill-opacity:1;" d="M 47 49 L 49 49 L 49 51 L 47 51 Z M 47 49 "/>
<path style=" stroke:none;fill-rule:nonzero;fill:rgb(0%,0%,0%);fill-opacity:1;" d="M 47 53 L 49 53 L 49 55 L 47 55 Z M 47 53 "/>
<path style=" stroke:none;fill-rule:nonzero;fill:rgb(0%,0%,0%);fill-opacity:1;" d="M 47 57 L 49 57 L 49 59 L 47 59 Z M 47 57 "/>
</g>
</svg>
